<svg xmlns="http://www.w3.org/2000/svg" viewBox="0 0 24 24" class="h-6 w-6" fill="currentColor" aria-hidden="true"> <path d="M12 0C5.37 0 0 5.37 0 12c0 5.303 3.438 9.8 8.205 11.387.6.113.82-.26.82-.577 0-.285-.01-1.04-.015-2.04-3.338.726-4.042-1.61-4.042-1.61-.546-1.387-1.333-1.757-1.333-1.757-1.09-.745.084-.73.084-.73 1.205.085 1.84 1.236 1.84 1.236 1.07 1.834 2.807 1.304 3.492.997.108-.775.418-1.304.76-1.604-2.665-.303-5.466-1.334-5.466-5.933 0-1.31.47-2.38 1.235-3.22-.124-.303-.535-1.523.117-3.176 0 0 1.008-.322 3.3 1.23a11.5 11.5 0 0 1 3-.404c1.02.005 2.045.138 3 .404 2.29-1.552 3.295-1.23 3.295-1.23.655 1.653.244 2.873.12 3.176.77.84 1.23 1.91 1.23 3.22 0 4.61-2.807 5.625-5.48 5.922.43.372.81 1.102.81 2.222 0 1.606-.014 2.898-.014 3.293 0 .32.216.694.825.576C20.565 21.796 24 17.3 24 12c0-6.63-5.37-12-12-12z"/> </svg>
