<?xml version="1.0" encoding="UTF-8" standalone="no"?>
<svg
   xmlns:dc="http://purl.org/dc/elements/1.1/"
   xmlns:cc="http://creativecommons.org/ns#"
   xmlns:rdf="http://www.w3.org/1999/02/22-rdf-syntax-ns#"
   xmlns:svg="http://www.w3.org/2000/svg"
   xmlns="http://www.w3.org/2000/svg"
   xmlns:sodipodi="http://sodipodi.sourceforge.net/DTD/sodipodi-0.dtd"
   xmlns:inkscape="http://www.inkscape.org/namespaces/inkscape"
   version="1.1"
   id="Layer_1"
   x="0px"
   y="0px"
   viewBox="0 0 613.7 458.5"
   style="enable-background:new 0 0 613.7 458.5;"
   xml:space="preserve"
   inkscape:version="1.0.1 (0767f8302a, 2020-10-17)"
   sodipodi:docname="Wikimedia Deutschland-Logo standard dimensions.svg"><metadata
   id="metadata69"><rdf:RDF><cc:Work
       rdf:about=""><dc:format>image/svg+xml</dc:format><dc:type
         rdf:resource="http://purl.org/dc/dcmitype/StillImage" /><dc:title></dc:title></cc:Work></rdf:RDF></metadata><defs
   id="defs67" /><sodipodi:namedview
   pagecolor="#ffffff"
   bordercolor="#666666"
   borderopacity="1"
   objecttolerance="10"
   gridtolerance="10"
   guidetolerance="10"
   inkscape:pageopacity="0"
   inkscape:pageshadow="2"
   inkscape:window-width="1920"
   inkscape:window-height="1025"
   id="namedview65"
   showgrid="false"
   inkscape:snap-grids="true"
   inkscape:zoom="1.3460703"
   inkscape:cx="202.40046"
   inkscape:cy="196.50486"
   inkscape:window-x="0"
   inkscape:window-y="27"
   inkscape:window-maximized="1"
   inkscape:current-layer="Layer_1"
   inkscape:document-rotation="0" /><style
   type="text/css"
   id="style3">
	.st0{display:none;}
	.st1{fill:#FFFFFF;}
</style><g
   id="g3264"><path
     inkscape:connector-curvature="0"
     id="path9"
     d="m 56,338 11.9,-38.6 15.6,0 11.8,38.6 13.3,-38.6 16.2,0 -23.4,67.1 -11.1,0 -14.7,-46.7 -14.6,46.7 -11.1,0 -23.4,-67.1 16.2,0 L 56,338 Z" /><path
     inkscape:connector-curvature="0"
     id="path11"
     d="m 132.9,299.4 15,0 0,67.1 -15,0 0,-67.1 z" /><path
     inkscape:connector-curvature="0"
     id="path13"
     d="m 164.4,299.4 15,0 0,27.6 25.3,-27.6 18.5,0 -26.7,29.7 c 2.3,3.2 6.6,9.2 12.8,17.9 6.2,8.7 10.8,15.2 13.9,19.5 l -17.5,0 -19.6,-26.5 -6.7,7.5 0,19 -15,0 0,-67.1 z" /><path
     inkscape:connector-curvature="0"
     id="path15"
     d="m 232.5,299.4 15,0 0,67.1 -15,0 0,-67.1 z" /><path
     inkscape:connector-curvature="0"
     id="path17"
     d="M 324.1,324.3 306,361 l -9,0 -18,-36.7 0,42.2 -15,0 0,-67.1 20.3,0 17.3,36.9 17.4,-36.9 20.2,0 0,67.1 -15,0 0,-42.2 z" /><path
     inkscape:connector-curvature="0"
     id="path19"
     d="m 404,299.4 0,13.3 -33.4,0 0,13.8 30,0 0,12.8 -30,0 0,13.9 34.4,0 0,13.2 -49.4,0 0,-67.1 48.4,0 z" /><path
     inkscape:connector-curvature="0"
     id="path21"
     d="m 469.6,308.2 c 6.4,5.9 9.6,14 9.6,24.4 0,10.4 -3.1,18.7 -9.4,24.8 -6.2,6.1 -15.8,9.1 -28.6,9.1 l -22.9,0 0,-67.1 23.7,0 c 12.1,0 21.2,3 27.6,8.8 z m -11,39.9 c 3.7,-3.5 5.5,-8.5 5.5,-15.1 0,-6.6 -1.8,-11.7 -5.5,-15.2 -3.7,-3.6 -9.3,-5.3 -16.9,-5.3 l -8.4,0 0,40.8 9.5,0 c 6.9,0 12.2,-1.7 15.8,-5.2 z" /><path
     inkscape:connector-curvature="0"
     id="path23"
     d="m 492.2,299.4 15,0 0,67.1 -15,0 0,-67.1 z" /><path
     inkscape:connector-curvature="0"
     id="path25"
     d="m 571.5,366.5 -6.2,-14.5 -28.1,0 -6.2,14.5 -15.9,0 29,-67.1 14.5,0 29,67.1 -16.1,0 z m -20.3,-47.1 -8.4,19.5 16.8,0 -8.4,-19.5 z" /></g><g
   class="st0"
   id="g47"><path
     class="st1"
     d="M317.3,216c35.9-5.1,63.5-35.9,63.5-73.3c0-22.7-10.2-43-26.3-56.5l-37.3,37.3V216z"
     id="path49" /><path
     class="st1"
     d="M296.4,216v-92.5l-37.3-37.3c-16.1,13.6-26.3,33.9-26.3,56.5C232.9,180,260.5,210.9,296.4,216z"
     id="path51" /><path
     class="st1"
     d="M371.2,78.4c17.2,17.2,26.6,40,26.6,64.3s-9.5,47.1-26.6,64.3c-17.2,17.2-40,26.6-64.3,26.6   c-24.3,0-47.1-9.5-64.3-26.6s-26.6-40-26.6-64.3c0-24.3,9.5-47.1,26.6-64.3c1.5-1.5,3-2.9,4.5-4.2l-20.8-20.8   c-1.5,1.4-3,2.8-4.5,4.3c-11,11-19.7,23.9-25.8,38.2c-6.3,14.8-9.5,30.6-9.5,46.8c0,16.2,3.2,32,9.5,46.8   c6.1,14.3,14.7,27.2,25.8,38.2c11,11,23.9,19.7,38.2,25.8c14.8,6.3,30.6,9.5,46.8,9.5c16.2,0,32-3.2,46.8-9.5   c14.3-6.1,27.2-14.7,38.2-25.8c11-11,19.7-23.9,25.8-38.2c6.3-14.8,9.5-30.6,9.5-46.8c0-16.2-3.2-32-9.5-46.8   c-6.1-14.3-14.7-27.2-25.8-38.2c-1.5-1.5-3-2.9-4.5-4.3l-20.8,20.8C368.2,75.5,369.7,76.9,371.2,78.4z"
     id="path53" /><circle
     id="red_circle_52_"
     class="st1"
     cx="306.9"
     cy="59.3"
     r="37.5" /></g><g
   id="g56"><path
     d="M317.3,216c35.9-5.1,63.5-35.9,63.5-73.3c0-22.7-10.2-43-26.3-56.5l-37.3,37.3V216z"
     id="path58" /><path
     d="M296.4,216v-92.5l-37.3-37.3c-16.1,13.6-26.3,33.9-26.3,56.5C232.9,180,260.5,210.9,296.4,216z"
     id="path60" /><path
     d="M371.2,78.4c17.2,17.2,26.6,40,26.6,64.3s-9.5,47.1-26.6,64.3c-17.2,17.2-40,26.6-64.3,26.6c-24.3,0-47.1-9.5-64.3-26.6   s-26.6-40-26.6-64.3c0-24.3,9.5-47.1,26.6-64.3c1.5-1.5,3-2.9,4.5-4.2l-20.8-20.8c-1.5,1.4-3,2.8-4.5,4.3   c-11,11-19.7,23.9-25.8,38.2c-6.3,14.8-9.5,30.6-9.5,46.8c0,16.2,3.2,32,9.5,46.8c6.1,14.3,14.7,27.2,25.8,38.2   c11,11,23.9,19.7,38.2,25.8c14.8,6.3,30.6,9.5,46.8,9.5c16.2,0,32-3.2,46.8-9.5c14.3-6.1,27.2-14.7,38.2-25.8   c11-11,19.7-23.9,25.8-38.2c6.3-14.8,9.5-30.6,9.5-46.8c0-16.2-3.2-32-9.5-46.8c-6.1-14.3-14.7-27.2-25.8-38.2   c-1.5-1.5-3-2.9-4.5-4.3l-20.8,20.8C368.2,75.5,369.7,76.9,371.2,78.4z"
     id="path62" /><circle
     id="red_circle_46_"
     cx="306.9"
     cy="59.3"
     r="37.5" /></g><g
   aria-label="DEUTSCHLAND"
   id="text3205"
   style="font-style:normal;font-weight:normal;line-height:0%;font-family:sans-serif;letter-spacing:0px;word-spacing:0px;fill:#000000;fill-opacity:1;stroke:none;stroke-width:1px;stroke-linecap:butt;stroke-linejoin:miter;stroke-opacity:1"><path
     d="m 59.46698,403.43478 h 11.844066 q 4.335084,0 7.702514,1.70307 3.367431,1.66436 5.225324,4.76085 1.857893,3.05778 1.857893,7.08322 0,4.02543 -1.857893,7.12192 -1.857893,3.05778 -5.225324,4.76085 -3.36743,1.66436 -7.702514,1.66436 H 59.46698 Z m 11.61183,22.8366 q 2.980369,0 5.225323,-1.12248 2.28366,-1.16118 3.483549,-3.25131 1.238596,-2.12883 1.238596,-4.91567 0,-2.78684 -1.238596,-4.87697 -1.199889,-2.12884 -3.483549,-3.25131 -2.244954,-1.16119 -5.225323,-1.16119 h -6.580037 v 18.57893 z"
     style="font-style:normal;font-variant:normal;font-weight:600;font-stretch:normal;font-size:38.7061px;line-height:125%;font-family:Montserrat;-inkscape-font-specification:'Montserrat Semi-Bold';text-align:center;letter-spacing:18.9895px;writing-mode:lr-tb;text-anchor:middle"
     id="path860" /><path
     d="m 130.75507,426.31009 v 4.21896 h -20.3207 v -27.09427 h 19.77882 v 4.21897 h -14.74703 v 7.04451 h 13.08267 v 4.14155 h -13.08267 v 7.47028 z"
     style="font-style:normal;font-variant:normal;font-weight:600;font-stretch:normal;font-size:38.7061px;line-height:125%;font-family:Montserrat;-inkscape-font-specification:'Montserrat Semi-Bold';text-align:center;letter-spacing:18.9895px;writing-mode:lr-tb;text-anchor:middle"
     id="path862" /><path
     d="m 167.00447,430.91611 q -5.61238,0 -8.74758,-3.13519 -3.13519,-3.1739 -3.13519,-9.05723 v -15.28891 h 5.03179 v 15.09538 q 0,7.97346 6.88969,7.97346 6.85098,0 6.85098,-7.97346 v -15.09538 h 4.95438 v 15.28891 q 0,5.88333 -3.1352,9.05723 -3.09648,3.13519 -8.70887,3.13519 z"
     style="font-style:normal;font-variant:normal;font-weight:600;font-stretch:normal;font-size:38.7061px;line-height:125%;font-family:Montserrat;-inkscape-font-specification:'Montserrat Semi-Bold';text-align:center;letter-spacing:18.9895px;writing-mode:lr-tb;text-anchor:middle"
     id="path864" /><path
     d="m 209.85206,407.69245 h -8.97982 v -4.25767 h 22.99142 v 4.25767 h -8.97981 v 22.8366 h -5.03179 z"
     style="font-style:normal;font-variant:normal;font-weight:600;font-stretch:normal;font-size:38.7061px;line-height:125%;font-family:Montserrat;-inkscape-font-specification:'Montserrat Semi-Bold';text-align:center;letter-spacing:18.9895px;writing-mode:lr-tb;text-anchor:middle"
     id="path866" /><path
     d="m 254.72625,430.91611 q -3.13519,0 -6.07686,-0.89024 -2.90296,-0.89024 -4.60602,-2.36107 l 1.74177,-3.90931 q 1.66436,1.316 4.06414,2.16754 2.43849,0.81282 4.87697,0.81282 3.01908,0 4.48991,-0.96765 1.50954,-0.96765 1.50954,-2.5546 0,-1.16118 -0.85154,-1.8966 -0.81283,-0.77412 -2.09013,-1.19989 -1.2773,-0.42577 -3.48355,-0.96765 -3.09649,-0.73542 -5.03179,-1.47083 -1.8966,-0.73542 -3.29002,-2.28366 -1.35471,-1.58695 -1.35471,-4.25767 0,-2.24496 1.19989,-4.06414 1.23859,-1.8579 3.67708,-2.94167 2.47719,-1.08377 6.03815,-1.08377 2.47719,0 4.87697,0.6193 2.39977,0.6193 4.14155,1.78048 l -1.58695,3.90932 q -1.78048,-1.04507 -3.71579,-1.58695 -1.9353,-0.54189 -3.75449,-0.54189 -2.98037,0 -4.4512,1.00636 -1.43213,1.00636 -1.43213,2.67072 0,1.16118 0.81283,1.8966 0.85154,0.73541 2.12884,1.16118 1.2773,0.42577 3.48355,0.96765 3.01907,0.69671 4.95438,1.47084 1.9353,0.73541 3.29002,2.28366 1.39342,1.54824 1.39342,4.18025 0,2.24496 -1.2386,4.06415 -1.19989,1.81918 -3.67708,2.90295 -2.47719,1.08377 -6.03815,1.08377 z"
     style="font-style:normal;font-variant:normal;font-weight:600;font-stretch:normal;font-size:38.7061px;line-height:125%;font-family:Montserrat;-inkscape-font-specification:'Montserrat Semi-Bold';text-align:center;letter-spacing:18.9895px;writing-mode:lr-tb;text-anchor:middle"
     id="path868" /><path
     d="m 302.19982,430.91611 q -4.10285,0 -7.43157,-1.78048 -3.29002,-1.81918 -5.18662,-4.99308 -1.85789,-3.1739 -1.85789,-7.16063 0,-3.98673 1.8966,-7.16063 1.89659,-3.1739 5.18661,-4.95438 3.32873,-1.81919 7.43157,-1.81919 3.32873,0 6.07686,1.16118 2.74814,1.16119 4.64473,3.36744 l -3.25131,3.05778 q -2.94166,-3.1739 -7.23804,-3.1739 -2.78684,0 -4.99309,1.23859 -2.20624,1.19989 -3.44484,3.36743 -1.23859,2.16754 -1.23859,4.91568 0,2.74813 1.23859,4.91567 1.2386,2.16754 3.44484,3.40614 2.20625,1.19989 4.99309,1.19989 4.29638,0 7.23804,-3.21261 l 3.25131,3.09649 q -1.89659,2.20625 -4.68343,3.36743 -2.74814,1.16118 -6.07686,1.16118 z"
     style="font-style:normal;font-variant:normal;font-weight:600;font-stretch:normal;font-size:38.7061px;line-height:125%;font-family:Montserrat;-inkscape-font-specification:'Montserrat Semi-Bold';text-align:center;letter-spacing:18.9895px;writing-mode:lr-tb;text-anchor:middle"
     id="path870" /><path
     d="m 360.84613,403.43478 v 27.09427 h -5.03179 v -11.61183 h -14.01161 v 11.61183 h -5.0318 v -27.09427 h 5.0318 v 11.18607 h 14.01161 v -11.18607 z"
     style="font-style:normal;font-variant:normal;font-weight:600;font-stretch:normal;font-size:38.7061px;line-height:125%;font-family:Montserrat;-inkscape-font-specification:'Montserrat Semi-Bold';text-align:center;letter-spacing:18.9895px;writing-mode:lr-tb;text-anchor:middle"
     id="path872" /><path
     d="m 387.13354,403.43478 h 5.0318 v 22.8366 h 14.16643 v 4.25767 h -19.19823 z"
     style="font-style:normal;font-variant:normal;font-weight:600;font-stretch:normal;font-size:38.7061px;line-height:125%;font-family:Montserrat;-inkscape-font-specification:'Montserrat Semi-Bold';text-align:center;letter-spacing:18.9895px;writing-mode:lr-tb;text-anchor:middle"
     id="path874" /><path
     d="m 447.13095,424.25866 h -13.54714 l -2.67072,6.27039 h -5.18661 l 12.19242,-27.09427 h 4.95438 l 12.23113,27.09427 h -5.26403 z m -1.66436,-3.94802 -5.10921,-11.84406 -5.0705,11.84406 z"
     style="font-style:normal;font-variant:normal;font-weight:600;font-stretch:normal;font-size:38.7061px;line-height:125%;font-family:Montserrat;-inkscape-font-specification:'Montserrat Semi-Bold';text-align:center;letter-spacing:18.9895px;writing-mode:lr-tb;text-anchor:middle"
     id="path876" /><path
     d="m 501.57706,403.43478 v 27.09427 h -4.14156 l -14.94055,-18.34669 v 18.34669 h -4.99309 v -27.09427 h 4.14155 l 14.94056,18.34669 v -18.34669 z"
     style="font-style:normal;font-variant:normal;font-weight:600;font-stretch:normal;font-size:38.7061px;line-height:125%;font-family:Montserrat;-inkscape-font-specification:'Montserrat Semi-Bold';text-align:center;letter-spacing:18.9895px;writing-mode:lr-tb;text-anchor:middle"
     id="path878" /><path
     d="m 527.86447,403.43478 h 11.84407 q 4.33508,0 7.70251,1.70307 3.36743,1.66436 5.22533,4.76085 1.85789,3.05778 1.85789,7.08322 0,4.02543 -1.85789,7.12192 -1.8579,3.05778 -5.22533,4.76085 -3.36743,1.66436 -7.70251,1.66436 h -11.84407 z m 11.61183,22.8366 q 2.98037,0 5.22532,-1.12248 2.28366,-1.16118 3.48355,-3.25131 1.2386,-2.12883 1.2386,-4.91567 0,-2.78684 -1.2386,-4.87697 -1.19989,-2.12884 -3.48355,-3.25131 -2.24495,-1.16119 -5.22532,-1.16119 h -6.58004 v 18.57893 z"
     style="font-style:normal;font-variant:normal;font-weight:600;font-stretch:normal;font-size:38.7061px;line-height:125%;font-family:Montserrat;-inkscape-font-specification:'Montserrat Semi-Bold';text-align:center;letter-spacing:18.9895px;writing-mode:lr-tb;text-anchor:middle"
     id="path880" /></g>
</svg>
